<svg width="327" height="72" viewBox="0 0 327 72" fill="none" xmlns="http://www.w3.org/2000/svg">
<rect width="327" height="67" fill="#4734F3"/>
<g filter="url(#filter0_d_364_1332)">
<path d="M63.9609 42.2031C63.9609 44.7656 63.6953 46.9609 63.1641 48.7891C62.6484 50.6172 61.9297 52.1719 61.0078 53.4531C60.1016 54.7344 59.0625 55.8281 57.8906 56.7344C56.7344 57.6562 55.5156 58.4922 54.2344 59.2422C53.7031 59.5391 53.2812 59.4375 52.9688 58.9375L50.3438 54.7422C50 54.1797 50.1172 53.7266 50.6953 53.3828C51.7109 52.7891 52.6484 52.0547 53.5078 51.1797C54.3672 50.2891 55.0625 49.1328 55.5938 47.7109C56.125 46.2734 56.3906 44.4375 56.3906 42.2031V22.1406C56.3906 21.6875 56.4688 21.3438 56.625 21.1094C57.3281 20.0781 58.3125 18.9922 59.5781 17.8516C59.8125 17.6641 60.0156 17.5703 60.1875 17.5703C60.375 17.5703 60.5703 17.6641 60.7734 17.8516C61.4609 18.4453 62.0391 19.0156 62.5078 19.5625C62.9766 20.0938 63.3828 20.6094 63.7266 21.1094C63.8828 21.3594 63.9609 21.7031 63.9609 22.1406V42.2031ZM81.9375 52.5859C78 52.5859 74.8828 51.5391 72.5859 49.4453C70.2891 47.3516 69.1406 44.2344 69.1406 40.0938C69.1406 35.8438 70.3281 32.6719 72.7031 30.5781C75.0938 28.4688 78.2812 27.4141 82.2656 27.4141C86.1094 27.4141 89.1875 28.4531 91.5 30.5312C93.8125 32.5938 94.9688 35.6406 94.9688 39.6719C94.9688 43.875 93.8125 47.0781 91.5 49.2812C89.1875 51.4844 86 52.5859 81.9375 52.5859ZM82.1719 46.9141C83.8906 46.9141 85.1875 46.3828 86.0625 45.3203C86.9375 44.2422 87.375 42.4062 87.375 39.8125C87.375 37.3438 86.9297 35.6094 86.0391 34.6094C85.1641 33.5938 83.8594 33.0859 82.125 33.0859C80.4531 33.0859 79.1328 33.6328 78.1641 34.7266C77.2109 35.8047 76.7344 37.5625 76.7344 40C76.7344 42.5469 77.1875 44.3359 78.0938 45.3672C79.0156 46.3984 80.375 46.9141 82.1719 46.9141ZM123.211 30.25V49.2578C123.211 53.8203 121.906 57.2969 119.297 59.6875C116.703 62.0781 113.141 63.2734 108.609 63.2734C106.734 63.2734 105.25 63.1328 104.156 62.8516C103.062 62.5859 102.234 62.3281 101.672 62.0781C101.312 61.9062 101.078 61.7266 100.969 61.5391C100.812 61.2891 100.633 60.9219 100.43 60.4375C100.242 59.9531 100.062 59.4219 99.8906 58.8438C99.8438 58.625 99.8359 58.4609 99.8672 58.3516C99.9297 58.1953 100.047 58.0312 100.219 57.8594C100.5 57.5781 100.898 57.25 101.414 56.875C101.945 56.5 102.352 56.2578 102.633 56.1484C102.93 56.0391 103.203 56.0547 103.453 56.1953C103.859 56.4141 104.438 56.6562 105.188 56.9219C105.953 57.2031 107.023 57.3438 108.398 57.3438C110.586 57.3438 112.367 56.7812 113.742 55.6562C115.117 54.5312 115.805 52.7969 115.805 50.4531V49.6094H115.711C115.367 50.0469 114.922 50.4922 114.375 50.9453C113.828 51.3984 113.117 51.7812 112.242 52.0938C111.383 52.4062 110.273 52.5625 108.914 52.5625C106.555 52.5625 104.617 52.0547 103.102 51.0391C101.602 50.0078 100.492 48.5938 99.7734 46.7969C99.0703 45 98.7188 42.9531 98.7188 40.6562C98.7188 38.1406 99.1328 35.8828 99.9609 33.8828C100.789 31.8828 102.18 30.3047 104.133 29.1484C106.086 27.9766 108.758 27.3906 112.148 27.3906C114.18 27.3906 115.883 27.5391 117.258 27.8359C118.648 28.1328 119.812 28.5 120.75 28.9375C121.688 29.375 122.508 29.8125 123.211 30.25ZM111.891 33.0625C110.078 33.0625 108.695 33.6719 107.742 34.8906C106.789 36.1094 106.312 38 106.312 40.5625C106.312 44.5781 107.969 46.5859 111.281 46.5859C112.578 46.5859 113.57 46.3203 114.258 45.7891C114.945 45.2578 115.461 44.5859 115.805 43.7734V34.0938C115.461 33.8438 114.977 33.6094 114.352 33.3906C113.727 33.1719 112.906 33.0625 111.891 33.0625ZM128.883 20.2188C128.883 20.0156 128.938 19.8438 129.047 19.7031C129.172 19.5469 129.336 19.3438 129.539 19.0938C129.977 18.5938 130.477 18.0781 131.039 17.5469C131.617 17 132.195 16.4766 132.773 15.9766C133.133 15.6797 133.406 15.5312 133.594 15.5312C133.781 15.5312 134.062 15.6797 134.438 15.9766C135.656 17.0234 136.719 18.0625 137.625 19.0938C137.812 19.3281 137.969 19.5234 138.094 19.6797C138.234 19.8359 138.305 20.0156 138.305 20.2188C138.305 20.4219 138.234 20.6016 138.094 20.7578C137.969 20.8984 137.805 21.1016 137.602 21.3672C137.18 21.8516 136.688 22.3594 136.125 22.8906C135.578 23.4219 135.016 23.9375 134.438 24.4375C134.234 24.625 134.07 24.75 133.945 24.8125C133.82 24.8594 133.703 24.8828 133.594 24.8828C133.484 24.8828 133.367 24.8594 133.242 24.8125C133.133 24.75 132.961 24.625 132.727 24.4375C132.102 23.9375 131.523 23.4219 130.992 22.8906C130.461 22.3438 129.977 21.8203 129.539 21.3203C129.336 21.0703 129.172 20.875 129.047 20.7344C128.938 20.5938 128.883 20.4219 128.883 20.2188ZM129.867 50.1484V29.2422C129.867 28.7734 129.961 28.4531 130.148 28.2812C130.352 28.0938 130.688 28 131.156 28H135.984C136.453 28 136.781 28.0938 136.969 28.2812C137.172 28.4531 137.273 28.7734 137.273 29.2422V51.5781C137.273 54 136.945 55.9688 136.289 57.4844C135.633 59.0156 134.805 60.2188 133.805 61.0938C132.805 61.9844 131.789 62.6875 130.758 63.2031C130.195 63.4844 129.703 63.375 129.281 62.875L126.422 59.3828C126.172 59.0859 126.047 58.8281 126.047 58.6094C126.047 58.4062 126.211 58.1953 126.539 57.9766C126.883 57.7422 127.312 57.3828 127.828 56.8984C128.359 56.4141 128.828 55.6406 129.234 54.5781C129.656 53.5312 129.867 52.0547 129.867 50.1484ZM149.859 52.5859C147.562 52.5859 145.734 51.9453 144.375 50.6641C143.031 49.3672 142.359 47.5859 142.359 45.3203C142.359 44.1484 142.57 43.0625 142.992 42.0625C143.43 41.0469 144.18 40.1562 145.242 39.3906C146.32 38.6094 147.82 37.9844 149.742 37.5156C151.68 37.0469 154.148 36.7734 157.148 36.6953C157.148 35.2734 156.789 34.25 156.07 33.625C155.367 33 154.305 32.6875 152.883 32.6875C151.602 32.6875 150.555 32.9062 149.742 33.3438C148.93 33.7812 148.422 34.0781 148.219 34.2344C148 34.4219 147.734 34.4922 147.422 34.4453C147 34.3828 146.547 34.2734 146.062 34.1172C145.594 33.9609 145.086 33.7812 144.539 33.5781C144.461 33.5469 144.375 33.5 144.281 33.4375C144.188 33.3594 144.133 33.25 144.117 33.1094C144.117 33.0312 144.125 32.9375 144.141 32.8281C144.156 32.7031 144.195 32.4844 144.258 32.1719C144.32 31.8594 144.414 31.4766 144.539 31.0234C144.664 30.5547 144.781 30.1953 144.891 29.9453C145.031 29.6797 145.266 29.4297 145.594 29.1953C145.859 28.9766 146.664 28.625 148.008 28.1406C149.352 27.6562 151.297 27.4141 153.844 27.4141C160.859 27.4141 164.367 30.8281 164.367 37.6562V50.9219C164.367 51.2188 164.281 51.4766 164.109 51.6953C163.953 51.8984 163.68 52 163.289 52H159.773C159.523 52 159.297 51.9688 159.094 51.9062C158.906 51.8281 158.727 51.6875 158.555 51.4844L157.102 49.6094H156.938C156.219 50.6562 155.25 51.4141 154.031 51.8828C152.828 52.3516 151.438 52.5859 149.859 52.5859ZM152.438 47.1484C153.875 47.1484 154.961 46.7812 155.695 46.0469C156.43 45.3125 156.898 44.5547 157.102 43.7734V41.1719C154.93 41.1719 153.297 41.3438 152.203 41.6875C151.125 42.0156 150.406 42.4531 150.047 43C149.688 43.5312 149.508 44.1094 149.508 44.7344C149.508 45.6406 149.789 46.2734 150.352 46.6328C150.914 46.9766 151.609 47.1484 152.438 47.1484ZM197.273 40.7734C196.867 40.7734 196.523 40.6719 196.242 40.4688C195.945 40.2656 195.594 39.9766 195.188 39.6016C194.781 39.2266 194.328 38.7656 193.828 38.2188C193.641 38 193.547 37.8047 193.547 37.6328C193.547 37.4609 193.641 37.2656 193.828 37.0469C194.797 35.9531 195.68 35.1484 196.477 34.6328C196.664 34.5078 196.93 34.4453 197.273 34.4453C198.336 34.4453 199.25 34.0469 200.016 33.25C200.797 32.4531 201.172 31.1641 201.141 29.3828C201.125 27.4609 200.648 26.1172 199.711 25.3516C198.789 24.5859 197.523 24.2031 195.914 24.2031H194.789C193.758 24.2031 193.055 24.4219 192.68 24.8594C192.305 25.2969 192.117 26.0469 192.117 27.1094V50.7578C192.117 51.2266 192.016 51.5547 191.812 51.7422C191.625 51.9141 191.297 52 190.828 52H185.836C185.367 52 185.031 51.9141 184.828 51.7422C184.641 51.5547 184.547 51.2266 184.547 50.7578V24.6719C184.547 23.1094 184.688 21.875 184.969 20.9688C185.266 20.0469 185.828 19.3906 186.656 19C187.5 18.5938 188.727 18.3906 190.336 18.3906H195.914C200.398 18.3906 203.719 19.2734 205.875 21.0391C208.031 22.7891 209.109 25.4766 209.109 29.1016C209.109 31.8203 208.539 34.0391 207.398 35.7578C206.273 37.4766 204.805 38.7422 202.992 39.5547C201.195 40.3672 199.289 40.7734 197.273 40.7734ZM228.68 52.5859C225.43 52.5859 222.602 51.9609 220.195 50.7109C217.789 49.4609 215.922 47.5781 214.594 45.0625C213.281 42.5469 212.625 39.4062 212.625 35.6406C212.625 29.6562 214.086 25.1953 217.008 22.2578C219.93 19.3047 224 17.8281 229.219 17.8281C234.109 17.8281 237.977 19.2734 240.82 22.1641C243.664 25.0391 245.086 29.3047 245.086 34.9609C245.086 38.9609 244.422 42.2656 243.094 44.875C241.766 47.4688 239.875 49.4062 237.422 50.6875C234.969 51.9531 232.055 52.5859 228.68 52.5859ZM228.82 46.2578C231.633 46.2578 233.719 45.25 235.078 43.2344C236.438 41.2188 237.117 38.6016 237.117 35.3828C237.117 31.6484 236.477 28.8438 235.195 26.9688C233.914 25.0938 231.852 24.1562 229.008 24.1562C223.398 24.1562 220.594 27.8516 220.594 35.2422C220.594 38.5391 221.266 41.2031 222.609 43.2344C223.969 45.25 226.039 46.2578 228.82 46.2578ZM260.062 52.5625C258.078 52.5625 256.43 52.3828 255.117 52.0234C253.82 51.6641 252.773 51.2188 251.977 50.6875C251.195 50.1406 250.594 49.6016 250.172 49.0703C250.031 48.8672 249.906 48.6719 249.797 48.4844C249.688 48.2969 249.609 48.0859 249.562 47.8516C249.5 47.5391 249.438 47.1328 249.375 46.6328C249.312 46.1172 249.305 45.5234 249.352 44.8516C249.367 44.5703 249.422 44.375 249.516 44.2656C249.625 44.1406 249.805 44.0469 250.055 43.9844C250.508 43.875 251.094 43.7812 251.812 43.7031C252.547 43.6094 253.07 43.5625 253.383 43.5625C253.711 43.5625 253.977 43.625 254.18 43.75C254.383 43.875 254.625 44.0859 254.906 44.3828C255.219 44.7109 255.758 45.1328 256.523 45.6484C257.289 46.1484 258.469 46.3984 260.062 46.3984C261.594 46.3984 262.75 46.0781 263.531 45.4375C264.312 44.7969 264.703 43.9062 264.703 42.7656C264.703 42.1562 264.516 41.5859 264.141 41.0547C263.781 40.5078 263.117 39.9688 262.148 39.4375C261.18 38.8906 259.797 38.3203 258 37.7266C255.031 36.7266 252.891 35.4844 251.578 34C250.266 32.5156 249.609 30.4531 249.609 27.8125C249.609 25.625 250.141 23.7969 251.203 22.3281C252.266 20.8594 253.734 19.75 255.609 19C257.484 18.25 259.648 17.875 262.102 17.875C263.992 17.875 265.555 18.1016 266.789 18.5547C268.039 18.9922 269.008 19.4922 269.695 20.0547C270.383 20.6016 270.828 21.0469 271.031 21.3906C271.156 21.5938 271.234 21.75 271.266 21.8594C271.312 21.9531 271.344 22.0859 271.359 22.2578C271.406 22.7422 271.422 23.2812 271.406 23.875C271.391 24.4688 271.336 25.1406 271.242 25.8906C271.195 26.1406 271.109 26.3125 270.984 26.4062C270.875 26.4844 270.703 26.5234 270.469 26.5234C268.953 26.5547 267.781 26.4766 266.953 26.2891C266.625 26.2109 266.406 26.1328 266.297 26.0547C266.188 25.9766 266.047 25.8516 265.875 25.6797C265.625 25.3828 265.227 25.0391 264.68 24.6484C264.148 24.2422 263.289 24.0391 262.102 24.0391C260.461 24.0391 259.297 24.4141 258.609 25.1641C257.922 25.8984 257.578 26.7266 257.578 27.6484C257.578 28.7422 258.086 29.6016 259.102 30.2266C260.117 30.8359 261.719 31.5312 263.906 32.3125C265.734 32.9531 267.305 33.6484 268.617 34.3984C269.93 35.1484 270.93 36.1094 271.617 37.2812C272.32 38.4531 272.672 40 272.672 41.9219C272.672 44.3125 272.117 46.2969 271.008 47.875C269.914 49.4531 268.414 50.6328 266.508 51.4141C264.617 52.1797 262.469 52.5625 260.062 52.5625Z" fill="white"/>
</g>
<defs>
<filter id="filter0_d_364_1332" x="45.8281" y="15.5312" width="230.844" height="56.0938" filterUnits="userSpaceOnUse" color-interpolation-filters="sRGB">
<feFlood flood-opacity="0" result="BackgroundImageFix"/>
<feColorMatrix in="SourceAlpha" type="matrix" values="0 0 0 0 0 0 0 0 0 0 0 0 0 0 0 0 0 0 127 0" result="hardAlpha"/>
<feOffset dy="4"/>
<feGaussianBlur stdDeviation="2"/>
<feComposite in2="hardAlpha" operator="out"/>
<feColorMatrix type="matrix" values="0 0 0 0 0 0 0 0 0 0 0 0 0 0 0 0 0 0 0.25 0"/>
<feBlend mode="normal" in2="BackgroundImageFix" result="effect1_dropShadow_364_1332"/>
<feBlend mode="normal" in="SourceGraphic" in2="effect1_dropShadow_364_1332" result="shape"/>
</filter>
</defs>
</svg>
