<svg fill="none" height="24" viewBox="0 0 124 24" width="124" xmlns="http://www.w3.org/2000/svg">
    <path
        d="M11.8555 7.80469V10.7578H3.01953V7.80469H11.8555ZM4.22656 0.9375V18H0.40625V0.9375H4.22656ZM14.4922 0.9375V18H10.6836V0.9375H14.4922ZM23.8555 14.9766V9.53906C23.8555 9.15625 23.7969 8.82812 23.6797 8.55469C23.5625 8.28125 23.3789 8.06641 23.1289 7.91016C22.8789 7.75391 22.5547 7.67578 22.1562 7.67578C21.8203 7.67578 21.5273 7.73438 21.2773 7.85156C21.0352 7.96875 20.8477 8.13672 20.7148 8.35547C20.5898 8.57422 20.5273 8.84375 20.5273 9.16406H16.8711C16.8711 8.59375 17 8.0625 17.2578 7.57031C17.5156 7.07812 17.8828 6.64453 18.3594 6.26953C18.8438 5.89453 19.4219 5.60547 20.0938 5.40234C20.7656 5.19141 21.5195 5.08594 22.3555 5.08594C23.3477 5.08594 24.2305 5.25391 25.0039 5.58984C25.7852 5.91797 26.4023 6.41406 26.8555 7.07812C27.3086 7.73438 27.5352 8.5625 27.5352 9.5625V14.8711C27.5352 15.6367 27.5781 16.2383 27.6641 16.6758C27.7578 17.1055 27.8906 17.4805 28.0625 17.8008V18H24.3711C24.1992 17.6328 24.0703 17.1797 23.9844 16.6406C23.8984 16.0938 23.8555 15.5391 23.8555 14.9766ZM24.3125 10.2656L24.3359 12.2812H22.5195C22.1133 12.2812 21.7617 12.332 21.4648 12.4336C21.1758 12.5352 20.9414 12.6758 20.7617 12.8555C20.582 13.0273 20.4492 13.2305 20.3633 13.4648C20.2852 13.6914 20.2461 13.9414 20.2461 14.2148C20.2461 14.4727 20.3086 14.707 20.4336 14.918C20.5586 15.1211 20.7305 15.2812 20.9492 15.3984C21.168 15.5156 21.4219 15.5742 21.7109 15.5742C22.1875 15.5742 22.5938 15.4805 22.9297 15.293C23.2734 15.1055 23.5391 14.8789 23.7266 14.6133C23.9141 14.3398 24.0078 14.0859 24.0078 13.8516L24.8867 15.375C24.7461 15.6875 24.5742 16.0117 24.3711 16.3477C24.168 16.6758 23.9102 16.9844 23.5977 17.2734C23.2852 17.5547 22.9062 17.7852 22.4609 17.9648C22.0234 18.1445 21.4961 18.2344 20.8789 18.2344C20.082 18.2344 19.3594 18.0742 18.7109 17.7539C18.0625 17.4258 17.543 16.9766 17.1523 16.4062C16.7695 15.8359 16.5781 15.1797 16.5781 14.4375C16.5781 13.7734 16.6992 13.1836 16.9414 12.668C17.1836 12.1523 17.5469 11.7148 18.0312 11.3555C18.5234 10.9961 19.1406 10.7266 19.8828 10.5469C20.625 10.3594 21.4922 10.2656 22.4844 10.2656H24.3125ZM36.6523 14.9766V9.53906C36.6523 9.15625 36.5938 8.82812 36.4766 8.55469C36.3594 8.28125 36.1758 8.06641 35.9258 7.91016C35.6758 7.75391 35.3516 7.67578 34.9531 7.67578C34.6172 7.67578 34.3242 7.73438 34.0742 7.85156C33.832 7.96875 33.6445 8.13672 33.5117 8.35547C33.3867 8.57422 33.3242 8.84375 33.3242 9.16406H29.668C29.668 8.59375 29.7969 8.0625 30.0547 7.57031C30.3125 7.07812 30.6797 6.64453 31.1562 6.26953C31.6406 5.89453 32.2188 5.60547 32.8906 5.40234C33.5625 5.19141 34.3164 5.08594 35.1523 5.08594C36.1445 5.08594 37.0273 5.25391 37.8008 5.58984C38.582 5.91797 39.1992 6.41406 39.6523 7.07812C40.1055 7.73438 40.332 8.5625 40.332 9.5625V14.8711C40.332 15.6367 40.375 16.2383 40.4609 16.6758C40.5547 17.1055 40.6875 17.4805 40.8594 17.8008V18H37.168C36.9961 17.6328 36.8672 17.1797 36.7812 16.6406C36.6953 16.0938 36.6523 15.5391 36.6523 14.9766ZM37.1094 10.2656L37.1328 12.2812H35.3164C34.9102 12.2812 34.5586 12.332 34.2617 12.4336C33.9727 12.5352 33.7383 12.6758 33.5586 12.8555C33.3789 13.0273 33.2461 13.2305 33.1602 13.4648C33.082 13.6914 33.043 13.9414 33.043 14.2148C33.043 14.4727 33.1055 14.707 33.2305 14.918C33.3555 15.1211 33.5273 15.2812 33.7461 15.3984C33.9648 15.5156 34.2188 15.5742 34.5078 15.5742C34.9844 15.5742 35.3906 15.4805 35.7266 15.293C36.0703 15.1055 36.3359 14.8789 36.5234 14.6133C36.7109 14.3398 36.8047 14.0859 36.8047 13.8516L37.6836 15.375C37.543 15.6875 37.3711 16.0117 37.168 16.3477C36.9648 16.6758 36.707 16.9844 36.3945 17.2734C36.082 17.5547 35.7031 17.7852 35.2578 17.9648C34.8203 18.1445 34.293 18.2344 33.6758 18.2344C32.8789 18.2344 32.1562 18.0742 31.5078 17.7539C30.8594 17.4258 30.3398 16.9766 29.9492 16.4062C29.5664 15.8359 29.375 15.1797 29.375 14.4375C29.375 13.7734 29.4961 13.1836 29.7383 12.668C29.9805 12.1523 30.3438 11.7148 30.8281 11.3555C31.3203 10.9961 31.9375 10.7266 32.6797 10.5469C33.4219 10.3594 34.2891 10.2656 35.2812 10.2656H37.1094ZM46.4727 14.4727L48.957 5.32031H51.2656L50.4805 9.39844L47.9961 18H46.1094L46.4727 14.4727ZM45.3359 5.32031L47 14.4375L47.1758 18H44.9258L41.8086 5.32031H45.3359ZM53.5156 14.2617L55.168 5.32031H58.6953L55.6016 18H53.3516L53.5156 14.2617ZM51.5469 5.32031L54.0547 14.4258L54.418 18H52.5078L50.0469 9.41016L49.2969 5.32031H51.5469ZM66.2422 18.2344C65.2344 18.2344 64.332 18.0742 63.5352 17.7539C62.7383 17.4336 62.0625 16.9922 61.5078 16.4297C60.9609 15.8594 60.543 15.2031 60.2539 14.4609C59.9648 13.7188 59.8203 12.9258 59.8203 12.082V11.6367C59.8203 10.6914 59.9531 9.82031 60.2188 9.02344C60.4844 8.22656 60.8711 7.53516 61.3789 6.94922C61.8945 6.35547 62.5273 5.89844 63.2773 5.57812C64.0273 5.25 64.8828 5.08594 65.8438 5.08594C66.7422 5.08594 67.543 5.23438 68.2461 5.53125C68.9492 5.82031 69.543 6.23828 70.0273 6.78516C70.5117 7.32422 70.8789 7.97656 71.1289 8.74219C71.3867 9.5 71.5156 10.3516 71.5156 11.2969V12.7969H61.2969V10.4414H67.9297V10.1602C67.9297 9.71484 67.8477 9.32422 67.6836 8.98828C67.5273 8.65234 67.293 8.39453 66.9805 8.21484C66.6758 8.02734 66.2891 7.93359 65.8203 7.93359C65.375 7.93359 65.0039 8.02734 64.707 8.21484C64.4102 8.40234 64.1719 8.66797 63.9922 9.01172C63.8203 9.34766 63.6953 9.74219 63.6172 10.1953C63.5391 10.6406 63.5 11.1211 63.5 11.6367V12.082C63.5 12.5742 63.5664 13.0234 63.6992 13.4297C63.832 13.8359 64.0273 14.1836 64.2852 14.4727C64.543 14.7617 64.8555 14.9883 65.2227 15.1523C65.5898 15.3164 66.0078 15.3984 66.4766 15.3984C67.0547 15.3984 67.6055 15.2891 68.1289 15.0703C68.6523 14.8438 69.1055 14.4922 69.4883 14.0156L71.1992 15.9727C70.9414 16.3477 70.5781 16.7109 70.1094 17.0625C69.6484 17.4062 69.0938 17.6875 68.4453 17.9062C67.7969 18.125 67.0625 18.2344 66.2422 18.2344ZM79.2734 18.2344C78.2656 18.2344 77.3633 18.0742 76.5664 17.7539C75.7695 17.4336 75.0938 16.9922 74.5391 16.4297C73.9922 15.8594 73.5742 15.2031 73.2852 14.4609C72.9961 13.7188 72.8516 12.9258 72.8516 12.082V11.6367C72.8516 10.6914 72.9844 9.82031 73.25 9.02344C73.5156 8.22656 73.9023 7.53516 74.4102 6.94922C74.9258 6.35547 75.5586 5.89844 76.3086 5.57812C77.0586 5.25 77.9141 5.08594 78.875 5.08594C79.7734 5.08594 80.5742 5.23438 81.2773 5.53125C81.9805 5.82031 82.5742 6.23828 83.0586 6.78516C83.543 7.32422 83.9102 7.97656 84.1602 8.74219C84.418 9.5 84.5469 10.3516 84.5469 11.2969V12.7969H74.3281V10.4414H80.9609V10.1602C80.9609 9.71484 80.8789 9.32422 80.7148 8.98828C80.5586 8.65234 80.3242 8.39453 80.0117 8.21484C79.707 8.02734 79.3203 7.93359 78.8516 7.93359C78.4062 7.93359 78.0352 8.02734 77.7383 8.21484C77.4414 8.40234 77.2031 8.66797 77.0234 9.01172C76.8516 9.34766 76.7266 9.74219 76.6484 10.1953C76.5703 10.6406 76.5312 11.1211 76.5312 11.6367V12.082C76.5312 12.5742 76.5977 13.0234 76.7305 13.4297C76.8633 13.8359 77.0586 14.1836 77.3164 14.4727C77.5742 14.7617 77.8867 14.9883 78.2539 15.1523C78.6211 15.3164 79.0391 15.3984 79.5078 15.3984C80.0859 15.3984 80.6367 15.2891 81.1602 15.0703C81.6836 14.8438 82.1367 14.4922 82.5195 14.0156L84.2305 15.9727C83.9727 16.3477 83.6094 16.7109 83.1406 17.0625C82.6797 17.4062 82.125 17.6875 81.4766 17.9062C80.8281 18.125 80.0938 18.2344 79.2734 18.2344Z"
        fill="#222222" />
    <path
        d="M86.5625 5.32031H90.2422V18.5859C90.2422 19.5625 90.0586 20.3867 89.6914 21.0586C89.3242 21.7383 88.793 22.25 88.0977 22.5938C87.4102 22.9453 86.5859 23.1211 85.625 23.1211C85.3125 23.1211 85.0156 23.1055 84.7344 23.0742C84.4531 23.0508 84.1523 23 83.832 22.9219V20.1328C84.0273 20.1641 84.2148 20.1875 84.3945 20.2031C84.5664 20.2266 84.75 20.2383 84.9453 20.2383C85.2969 20.2383 85.5898 20.1797 85.8242 20.0625C86.0664 19.9453 86.25 19.7617 86.375 19.5117C86.5 19.2695 86.5625 18.9609 86.5625 18.5859V5.32031ZM86.2812 2.03906C86.2812 1.50781 86.4688 1.07422 86.8438 0.738281C87.2188 0.394531 87.7148 0.222656 88.332 0.222656C88.9414 0.222656 89.4336 0.394531 89.8086 0.738281C90.1836 1.07422 90.3711 1.50781 90.3711 2.03906C90.3711 2.5625 90.1836 2.99609 89.8086 3.33984C89.4336 3.67578 88.9414 3.84375 88.332 3.84375C87.7148 3.84375 87.2188 3.67578 86.8438 3.33984C86.4688 2.99609 86.2812 2.5625 86.2812 2.03906ZM98.6797 18.2344C97.6719 18.2344 96.7695 18.0742 95.9727 17.7539C95.1758 17.4336 94.5 16.9922 93.9453 16.4297C93.3984 15.8594 92.9805 15.2031 92.6914 14.4609C92.4023 13.7188 92.2578 12.9258 92.2578 12.082V11.6367C92.2578 10.6914 92.3906 9.82031 92.6562 9.02344C92.9219 8.22656 93.3086 7.53516 93.8164 6.94922C94.332 6.35547 94.9648 5.89844 95.7148 5.57812C96.4648 5.25 97.3203 5.08594 98.2812 5.08594C99.1797 5.08594 99.9805 5.23438 100.684 5.53125C101.387 5.82031 101.98 6.23828 102.465 6.78516C102.949 7.32422 103.316 7.97656 103.566 8.74219C103.824 9.5 103.953 10.3516 103.953 11.2969V12.7969H93.7344V10.4414H100.367V10.1602C100.367 9.71484 100.285 9.32422 100.121 8.98828C99.9648 8.65234 99.7305 8.39453 99.418 8.21484C99.1133 8.02734 98.7266 7.93359 98.2578 7.93359C97.8125 7.93359 97.4414 8.02734 97.1445 8.21484C96.8477 8.40234 96.6094 8.66797 96.4297 9.01172C96.2578 9.34766 96.1328 9.74219 96.0547 10.1953C95.9766 10.6406 95.9375 11.1211 95.9375 11.6367V12.082C95.9375 12.5742 96.0039 13.0234 96.1367 13.4297C96.2695 13.8359 96.4648 14.1836 96.7227 14.4727C96.9805 14.7617 97.293 14.9883 97.6602 15.1523C98.0273 15.3164 98.4453 15.3984 98.9141 15.3984C99.4922 15.3984 100.043 15.2891 100.566 15.0703C101.09 14.8438 101.543 14.4922 101.926 14.0156L103.637 15.9727C103.379 16.3477 103.016 16.7109 102.547 17.0625C102.086 17.4062 101.531 17.6875 100.883 17.9062C100.234 18.125 99.5 18.2344 98.6797 18.2344ZM111.711 18.2344C110.703 18.2344 109.801 18.0742 109.004 17.7539C108.207 17.4336 107.531 16.9922 106.977 16.4297C106.43 15.8594 106.012 15.2031 105.723 14.4609C105.434 13.7188 105.289 12.9258 105.289 12.082V11.6367C105.289 10.6914 105.422 9.82031 105.688 9.02344C105.953 8.22656 106.34 7.53516 106.848 6.94922C107.363 6.35547 107.996 5.89844 108.746 5.57812C109.496 5.25 110.352 5.08594 111.312 5.08594C112.211 5.08594 113.012 5.23438 113.715 5.53125C114.418 5.82031 115.012 6.23828 115.496 6.78516C115.98 7.32422 116.348 7.97656 116.598 8.74219C116.855 9.5 116.984 10.3516 116.984 11.2969V12.7969H106.766V10.4414H113.398V10.1602C113.398 9.71484 113.316 9.32422 113.152 8.98828C112.996 8.65234 112.762 8.39453 112.449 8.21484C112.145 8.02734 111.758 7.93359 111.289 7.93359C110.844 7.93359 110.473 8.02734 110.176 8.21484C109.879 8.40234 109.641 8.66797 109.461 9.01172C109.289 9.34766 109.164 9.74219 109.086 10.1953C109.008 10.6406 108.969 11.1211 108.969 11.6367V12.082C108.969 12.5742 109.035 13.0234 109.168 13.4297C109.301 13.8359 109.496 14.1836 109.754 14.4727C110.012 14.7617 110.324 14.9883 110.691 15.1523C111.059 15.3164 111.477 15.3984 111.945 15.3984C112.523 15.3984 113.074 15.2891 113.598 15.0703C114.121 14.8438 114.574 14.4922 114.957 14.0156L116.668 15.9727C116.41 16.3477 116.047 16.7109 115.578 17.0625C115.117 17.4062 114.562 17.6875 113.914 17.9062C113.266 18.125 112.531 18.2344 111.711 18.2344ZM118.965 16.2656C118.965 15.7344 119.152 15.2891 119.527 14.9297C119.91 14.5703 120.406 14.3906 121.016 14.3906C121.633 14.3906 122.125 14.5703 122.492 14.9297C122.867 15.2891 123.055 15.7344 123.055 16.2656C123.055 16.7891 122.867 17.2305 122.492 17.5898C122.125 17.9492 121.633 18.1289 121.016 18.1289C120.406 18.1289 119.91 17.9492 119.527 17.5898C119.152 17.2305 118.965 16.7891 118.965 16.2656Z"
        fill="#328DD7" />
</svg>
