<svg width="88" height="38" viewBox="0 0 88 38" fill="none" xmlns="http://www.w3.org/2000/svg">
    <path
        d="M23.086 24.9972L7.61438 16.0313C7.54731 15.9876 7.50439 15.9209 7.50439 15.8428C7.50439 15.7623 7.55268 15.6887 7.62779 15.6473H7.62511L12.7439 12.6832C12.7653 12.674 12.8136 12.6625 12.8834 12.6625C12.9612 12.6625 13.0095 12.6786 13.0121 12.6786C13.3368 12.8649 16.591 14.7482 18.9491 16.1141L19.1825 16.2498C19.7084 16.5556 20.1832 16.8293 20.5534 17.0454C20.5669 17.0546 20.583 17.0615 20.5964 17.0684L22.9223 18.4113C23.196 18.5769 23.526 18.6666 23.8881 18.6666C24.8378 18.6666 25.6105 18.0043 25.6105 17.1834V14.8264C25.6185 14.624 25.5998 14.4194 25.5541 14.2147C25.3878 13.4857 24.9022 12.8557 24.1859 12.4395C19.5501 9.75131 17.876 8.78321 17.0953 8.3325L17.1034 8.3233L16.5507 8.01976C15.4696 7.42189 10.3616 7.40579 9.2938 7.97607C9.26161 7.99447 9.2321 8.01286 9.1999 8.03126L2.69684 11.7956C1.05498 12.7453 0.153562 14.1825 0.153562 15.8428C0.153562 17.4915 1.04961 18.9287 2.68074 19.8853L18.1389 28.8397C18.2141 28.8811 18.2623 28.9524 18.2623 29.0352C18.2623 29.111 18.2194 29.18 18.1524 29.2237L13.0229 32.197C13.0014 32.2062 12.9558 32.2177 12.886 32.2177C12.8056 32.2177 12.76 32.2016 12.7573 32.2016C12.4273 32.013 9.16503 30.1159 6.80418 28.7477L6.81491 28.7454L2.83903 26.4482C2.56538 26.2826 2.2354 26.1929 1.87323 26.1929C0.92352 26.1929 0.150879 26.8552 0.150879 27.6761V30.1872H0.153562C0.177707 31.0587 0.674022 31.9073 1.57812 32.4293C6.17641 35.0944 7.88266 36.0901 8.67945 36.55L8.6714 36.5592L9.21868 36.8627C10.2998 37.4606 11.5661 37.7757 12.886 37.7757C14.1684 37.7757 15.4079 37.4744 16.4756 36.9041C16.5105 36.8857 16.5427 36.8673 16.5749 36.8489L23.0726 33.0869C24.7118 32.1372 25.6159 30.6977 25.6159 29.0398C25.6159 27.3864 24.7171 25.9538 23.086 24.9972Z"
        fill="#D20680" />
    <path
        d="M52.6881 11.7959L46.1877 8.02925C46.1555 8.01315 46.1233 7.99246 46.0911 7.97636C45.026 7.40608 43.7839 7.10254 42.4988 7.10254C41.1816 7.10254 39.9126 7.41987 38.8342 8.01775L38.2815 8.32359L38.2896 8.33049C37.5089 8.78349 35.8321 9.747 31.1936 12.4351C30.2922 12.9571 29.7932 13.8057 29.769 14.6749H29.7664V17.186C29.7664 18.0069 30.539 18.6692 31.4887 18.6692C31.8509 18.6692 32.1809 18.5795 32.4545 18.4139L36.4304 16.1167H36.425C38.7912 14.7485 42.0615 12.8583 42.3513 12.6904C42.354 12.6881 42.3996 12.6651 42.4962 12.6651C42.5659 12.6651 42.6142 12.6789 42.6357 12.6881L47.7544 15.6522H47.7517C47.8268 15.6936 47.8751 15.7649 47.8751 15.8476C47.8751 15.9258 47.8322 15.9925 47.7651 16.0362L32.2801 25.009C30.657 25.9587 29.7637 27.3913 29.7637 29.0423C29.7637 30.7003 30.6678 32.1398 32.307 33.0895L38.8073 36.8538C38.8395 36.8722 38.8717 36.8906 38.9039 36.9067C39.969 37.4793 41.2138 37.7805 42.4962 37.7805C43.8134 37.7805 45.0824 37.4655 46.1608 36.8676L52.6881 33.0872C54.3272 32.1375 55.2313 30.698 55.2313 29.04V15.8453C55.2313 14.1851 54.3299 12.7479 52.6881 11.7959ZM48.7444 28.4192C48.7444 28.5548 48.6773 28.6767 48.5673 28.7595L48.5861 28.748H48.5888L42.6437 32.1927C42.6437 32.1927 42.5954 32.2157 42.4988 32.2157C42.4291 32.2157 42.3835 32.2019 42.3593 32.195L37.2299 29.2217C37.1628 29.178 37.1225 29.1113 37.1225 29.0354C37.1225 28.955 37.1708 28.8814 37.246 28.84L48.3876 22.3852L48.3849 22.3875C48.4224 22.3668 48.4653 22.3553 48.511 22.3553C48.6397 22.3553 48.7444 22.445 48.7444 22.5554V28.4192Z"
        fill="#D20680" />
    <path
        d="M71.0192 31.5393L66.217 28.7477H66.2197L66.2412 28.7592C66.1312 28.6764 66.0641 28.5522 66.0641 28.4188V5.54774V4.36349V1.90989C66.0641 1.09586 65.2915 0.433594 64.3418 0.433594C63.9769 0.433594 63.6389 0.530174 63.3599 0.69344L61.0098 2.05476C61.0071 2.05476 61.0071 2.05706 61.0071 2.05706L60.9937 2.06626C60.1378 2.56756 59.5771 3.40918 59.5771 4.36119V29.0351C59.5771 30.6954 60.4812 32.1326 62.1177 33.08L69.8146 37.5549C70.0749 37.6997 70.3834 37.7756 70.7214 37.7756C71.6711 37.7756 72.4438 37.1134 72.4438 36.2924V33.7814H72.4411C72.4196 32.9121 71.9233 32.0636 71.0192 31.5393Z"
        fill="#D20680" />
    <path
        d="M87.749 11.538L87.7516 8.94875C87.7516 8.12782 86.979 7.46555 86.0293 7.46555C85.6913 7.46555 85.3827 7.54374 85.1225 7.68631L81.7288 9.6593L81.7315 9.657C81.6966 9.6777 81.651 9.69149 81.6054 9.69149C81.4766 9.69149 81.372 9.60181 81.372 9.49144V5.54774V4.36349V1.90989C81.372 1.09586 80.5993 0.433594 79.6496 0.433594C79.2848 0.433594 78.9467 0.530174 78.6677 0.69344L76.3176 2.05476C76.3149 2.05476 76.3149 2.05706 76.3123 2.05706L76.2988 2.06396C75.443 2.56526 74.8823 3.40688 74.8823 4.35889V18.0595V22.8126V29.0328C74.8823 30.6931 75.7864 32.1303 77.4229 33.0777L85.1198 37.5526C85.3801 37.6974 85.6886 37.7733 86.0266 37.7733C86.9763 37.7733 87.749 37.1111 87.749 36.2901V33.7791H87.7463C87.7248 32.9075 87.2285 32.059 86.3271 31.5347L81.5249 28.7431H81.5276L81.549 28.7546C81.4391 28.6718 81.372 28.5476 81.372 28.4143V25.2685V22.8149V21.6306V16.9051C81.372 16.7694 81.4391 16.6476 81.549 16.5648L81.5276 16.5763H81.5249L86.3271 13.7847C87.2339 13.2581 87.7275 12.4072 87.749 11.538Z"
        fill="#D20680" />
</svg>
