<svg width="147" height="152" viewBox="0 0 147 152" fill="none" xmlns="http://www.w3.org/2000/svg">
<rect width="147" height="152" fill="#3B41E3"/>
<path d="M39.3281 49.875H46.1719V73.3125C46.1719 75.9375 45.6875 78.0781 44.7188 79.7344C43.7656 81.375 42.4453 82.5781 40.7578 83.3438C39.0703 84.0938 37.1406 84.4688 34.9688 84.4688C32.7812 84.4688 30.8359 84.0938 29.1328 83.3438C27.4297 82.5781 26.1016 81.375 25.1484 79.7344C24.2109 78.0781 23.7422 75.9375 23.7422 73.3125V49.875H30.5859V73.3125C30.5859 74.7969 30.75 75.9375 31.0781 76.7344C31.4219 77.5312 31.9141 78.0781 32.5547 78.375C33.2109 78.6562 34.0156 78.7969 34.9688 78.7969C35.9375 78.7969 36.7344 78.6562 37.3594 78.375C38 78.0781 38.4844 77.5312 38.8125 76.7344C39.1562 75.9375 39.3281 74.7969 39.3281 73.3125V49.875ZM62.9531 69.1172H55.9453L55.9219 64.1484H61.875C62.8125 64.1484 63.5781 63.9922 64.1719 63.6797C64.7812 63.3516 65.2266 62.875 65.5078 62.25C65.8047 61.6094 65.9531 60.8359 65.9531 59.9297C65.9531 58.8828 65.8125 58.0469 65.5312 57.4219C65.2656 56.7812 64.8359 56.3125 64.2422 56.0156C63.6641 55.7188 62.8984 55.5703 61.9453 55.5703H58.2891V84H51.4219V49.875H61.9453C63.6328 49.875 65.1484 50.0625 66.4922 50.4375C67.8359 50.8125 68.9766 51.3906 69.9141 52.1719C70.8516 52.9375 71.5703 53.9062 72.0703 55.0781C72.5703 56.2344 72.8203 57.6094 72.8203 59.2031C72.8203 60.6094 72.5391 61.9062 71.9766 63.0938C71.4141 64.2812 70.5312 65.2578 69.3281 66.0234C68.125 66.7734 66.5703 67.1875 64.6641 67.2656L62.9531 69.1172ZM62.6953 84H54L56.7422 78.3281H62.6953C63.6172 78.3281 64.3516 78.1328 64.8984 77.7422C65.4453 77.3516 65.8438 76.8281 66.0938 76.1719C66.3594 75.5 66.4922 74.7344 66.4922 73.875C66.4922 72.9062 66.375 72.0625 66.1406 71.3438C65.9219 70.625 65.5547 70.0781 65.0391 69.7031C64.5234 69.3125 63.8281 69.1172 62.9531 69.1172H57.0469L57.0938 64.1484H64.2656L65.8828 66.1172C67.7109 66.0547 69.1719 66.4062 70.2656 67.1719C71.3594 67.9219 72.1406 68.9062 72.6094 70.125C73.0938 71.3281 73.3359 72.6094 73.3359 73.9688C73.3359 76.1562 72.9219 78 72.0938 79.5C71.2812 80.9844 70.0859 82.1094 68.5078 82.875C66.9297 83.625 64.9922 84 62.6953 84ZM97.9453 78.3281V84H83.1094V78.3281H97.9453ZM85.2422 49.875V84H78.375V49.875H85.2422ZM95.9531 63.7031V69.2109H83.1094V63.7031H95.9531ZM97.8984 49.875V55.5703H83.1094V49.875H97.8984ZM101.977 49.875H112.922C115.203 49.875 117.148 50.2656 118.758 51.0469C120.367 51.8281 121.602 52.9844 122.461 54.5156C123.32 56.0469 123.75 57.9375 123.75 60.1875C123.75 62.0312 123.5 63.6094 123 64.9219C122.5 66.2188 121.789 67.3047 120.867 68.1797C119.945 69.0391 118.844 69.7266 117.562 70.2422L115.477 71.4844H106.594L106.57 65.7891H112.734C113.672 65.7891 114.445 65.5859 115.055 65.1797C115.68 64.7578 116.141 64.1719 116.438 63.4219C116.75 62.6562 116.906 61.7656 116.906 60.75C116.906 59.6719 116.766 58.75 116.484 57.9844C116.219 57.2031 115.789 56.6094 115.195 56.2031C114.617 55.7812 113.859 55.5703 112.922 55.5703H108.844V84H101.977V49.875ZM117.469 84L111.211 68.7891L118.406 68.7656L124.805 83.6719V84H117.469Z" fill="white"/>
<rect x="19" y="88" width="110" height="3" fill="white"/>
<path d="M27.5469 96.625H29.6406V104.484C29.6406 105.354 29.4792 106.06 29.1562 106.602C28.8333 107.143 28.3932 107.539 27.8359 107.789C27.2786 108.034 26.651 108.156 25.9531 108.156C25.2396 108.156 24.6042 108.034 24.0469 107.789C23.4896 107.539 23.0521 107.143 22.7344 106.602C22.4219 106.06 22.2656 105.354 22.2656 104.484V96.625H24.3516V104.484C24.3516 105 24.4141 105.398 24.5391 105.68C24.6693 105.961 24.8516 106.154 25.0859 106.258C25.3203 106.362 25.6094 106.414 25.9531 106.414C26.2969 106.414 26.5859 106.362 26.8203 106.258C27.0547 106.154 27.2344 105.961 27.3594 105.68C27.4844 105.398 27.5469 105 27.5469 104.484V96.625ZM33.3672 101.305V108H31.3672V99.5469H33.2656L33.3672 101.305ZM35.3828 99.4844L35.3672 101.477C35.263 101.456 35.1458 101.44 35.0156 101.43C34.8906 101.419 34.7734 101.414 34.6641 101.414C34.4193 101.414 34.2083 101.456 34.0312 101.539C33.8542 101.622 33.7057 101.742 33.5859 101.898C33.4661 102.055 33.375 102.247 33.3125 102.477C33.25 102.701 33.2109 102.956 33.1953 103.242L32.7891 103.172C32.7891 102.63 32.8307 102.13 32.9141 101.672C33.0026 101.214 33.1302 100.815 33.2969 100.477C33.4688 100.133 33.6797 99.8672 33.9297 99.6797C34.1797 99.487 34.4661 99.3906 34.7891 99.3906C34.888 99.3906 34.9948 99.401 35.1094 99.4219C35.2292 99.4375 35.3203 99.4583 35.3828 99.4844ZM40.6953 105.984V99.5469H42.7031V108H40.8203L40.6953 105.984ZM40.9531 104.234L41.5391 104.219C41.5391 104.786 41.487 105.31 41.3828 105.789C41.2786 106.268 41.1172 106.685 40.8984 107.039C40.6797 107.393 40.401 107.669 40.0625 107.867C39.7292 108.06 39.3333 108.156 38.875 108.156C38.526 108.156 38.2083 108.099 37.9219 107.984C37.6354 107.865 37.388 107.68 37.1797 107.43C36.9714 107.174 36.8099 106.849 36.6953 106.453C36.5807 106.052 36.5234 105.573 36.5234 105.016V99.5469H38.5312V105.031C38.5312 105.292 38.5521 105.516 38.5938 105.703C38.6406 105.885 38.7057 106.034 38.7891 106.148C38.8724 106.258 38.9688 106.336 39.0781 106.383C39.1875 106.43 39.3073 106.453 39.4375 106.453C39.8177 106.453 40.1172 106.357 40.3359 106.164C40.5599 105.971 40.7188 105.708 40.8125 105.375C40.9062 105.036 40.9531 104.656 40.9531 104.234ZM46.3828 101.352V108H44.375V99.5469H46.25L46.3828 101.352ZM46.0547 103.477L45.4766 103.484C45.4661 102.865 45.526 102.305 45.6562 101.805C45.7917 101.299 45.9844 100.867 46.2344 100.508C46.4844 100.148 46.7839 99.8724 47.1328 99.6797C47.4818 99.487 47.8724 99.3906 48.3047 99.3906C48.638 99.3906 48.9401 99.4479 49.2109 99.5625C49.487 99.6771 49.724 99.8594 49.9219 100.109C50.1198 100.359 50.2734 100.688 50.3828 101.094C50.4922 101.5 50.5469 101.997 50.5469 102.586V108H48.5391V102.57C48.5391 102.19 48.4974 101.893 48.4141 101.68C48.3359 101.461 48.2188 101.307 48.0625 101.219C47.9115 101.125 47.7161 101.078 47.4766 101.078C47.2526 101.078 47.0521 101.141 46.875 101.266C46.6979 101.385 46.5469 101.557 46.4219 101.781C46.3021 102 46.2109 102.255 46.1484 102.547C46.0859 102.833 46.0547 103.143 46.0547 103.477ZM56.0781 106.172V102.109C56.0781 101.833 56.0417 101.615 55.9688 101.453C55.901 101.292 55.7995 101.174 55.6641 101.102C55.5286 101.023 55.362 100.984 55.1641 100.984C54.9505 100.984 54.7708 101.029 54.625 101.117C54.4792 101.201 54.3698 101.323 54.2969 101.484C54.2292 101.641 54.1953 101.826 54.1953 102.039H52.1875C52.1875 101.685 52.2578 101.349 52.3984 101.031C52.5391 100.714 52.7422 100.432 53.0078 100.188C53.2734 99.9375 53.5938 99.7422 53.9688 99.6016C54.3438 99.4609 54.763 99.3906 55.2266 99.3906C55.7786 99.3906 56.2682 99.4844 56.6953 99.6719C57.1276 99.8542 57.4661 100.148 57.7109 100.555C57.9609 100.956 58.0859 101.482 58.0859 102.133V105.992C58.0859 106.424 58.1094 106.792 58.1562 107.094C58.2083 107.396 58.2839 107.654 58.3828 107.867V108H56.3516C56.263 107.781 56.1953 107.505 56.1484 107.172C56.1016 106.833 56.0781 106.5 56.0781 106.172ZM56.3359 102.844L56.3438 104.094H55.5C55.2656 104.094 55.0573 104.128 54.875 104.195C54.6979 104.263 54.5469 104.359 54.4219 104.484C54.2969 104.609 54.2031 104.758 54.1406 104.93C54.0781 105.102 54.0469 105.289 54.0469 105.492C54.0469 105.727 54.0807 105.922 54.1484 106.078C54.2161 106.229 54.3151 106.344 54.4453 106.422C54.5755 106.495 54.7344 106.531 54.9219 106.531C55.1875 106.531 55.4167 106.474 55.6094 106.359C55.8073 106.245 55.9557 106.109 56.0547 105.953C56.1589 105.792 56.1979 105.641 56.1719 105.5L56.625 106.312C56.5729 106.505 56.4922 106.708 56.3828 106.922C56.2734 107.135 56.1328 107.336 55.9609 107.523C55.7943 107.711 55.5885 107.865 55.3438 107.984C55.1042 108.099 54.8203 108.156 54.4922 108.156C54.0286 108.156 53.6094 108.055 53.2344 107.852C52.8646 107.648 52.5729 107.362 52.3594 106.992C52.1458 106.617 52.0391 106.169 52.0391 105.648C52.0391 105.221 52.1094 104.836 52.25 104.492C52.3906 104.148 52.5964 103.854 52.8672 103.609C53.1432 103.365 53.4922 103.177 53.9141 103.047C54.3359 102.911 54.8307 102.844 55.3984 102.844H56.3359ZM61.8047 101.352V108H59.7969V99.5469H61.6719L61.8047 101.352ZM61.4766 103.477L60.8984 103.484C60.888 102.865 60.9479 102.305 61.0781 101.805C61.2135 101.299 61.4062 100.867 61.6562 100.508C61.9062 100.148 62.2057 99.8724 62.5547 99.6797C62.9036 99.487 63.2943 99.3906 63.7266 99.3906C64.0599 99.3906 64.362 99.4479 64.6328 99.5625C64.9089 99.6771 65.1458 99.8594 65.3438 100.109C65.5417 100.359 65.6953 100.688 65.8047 101.094C65.9141 101.5 65.9688 101.997 65.9688 102.586V108H63.9609V102.57C63.9609 102.19 63.9193 101.893 63.8359 101.68C63.7578 101.461 63.6406 101.307 63.4844 101.219C63.3333 101.125 63.138 101.078 62.8984 101.078C62.6745 101.078 62.474 101.141 62.2969 101.266C62.1198 101.385 61.9688 101.557 61.8438 101.781C61.724 102 61.6328 102.255 61.5703 102.547C61.5078 102.833 61.4766 103.143 61.4766 103.477ZM75.2422 102.953H72.9141L72.9062 101.406H74.9297C75.2422 101.406 75.5026 101.349 75.7109 101.234C75.9245 101.115 76.0833 100.943 76.1875 100.719C76.2969 100.495 76.3516 100.221 76.3516 99.8984C76.3516 99.5339 76.3021 99.2422 76.2031 99.0234C76.1094 98.7995 75.9583 98.6354 75.75 98.5312C75.5417 98.4271 75.2708 98.375 74.9375 98.375H73.5859V108H71.4922V96.625H74.9375C75.4844 96.625 75.974 96.6875 76.4062 96.8125C76.8438 96.9323 77.2135 97.1198 77.5156 97.375C77.8177 97.6302 78.0469 97.9531 78.2031 98.3438C78.3646 98.7292 78.4453 99.1875 78.4453 99.7188C78.4453 100.188 78.349 100.617 78.1562 101.008C77.9635 101.398 77.6693 101.719 77.2734 101.969C76.8828 102.219 76.3854 102.362 75.7812 102.398L75.2422 102.953ZM75.1641 108H72.2812L73.1719 106.258H75.1641C75.487 106.258 75.7474 106.19 75.9453 106.055C76.1484 105.919 76.2995 105.732 76.3984 105.492C76.4974 105.247 76.5469 104.966 76.5469 104.648C76.5469 104.305 76.5026 104.005 76.4141 103.75C76.3307 103.495 76.1927 103.299 76 103.164C75.8125 103.023 75.5599 102.953 75.2422 102.953H73.3047L73.3203 101.406H75.7344L76.2266 102.008C76.7995 102.003 77.263 102.128 77.6172 102.383C77.9714 102.638 78.2292 102.969 78.3906 103.375C78.5521 103.776 78.6328 104.208 78.6328 104.672C78.6328 105.396 78.4974 106.005 78.2266 106.5C77.9557 106.995 77.5625 107.37 77.0469 107.625C76.5312 107.875 75.9036 108 75.1641 108ZM83.6016 108.156C83.0391 108.156 82.5391 108.07 82.1016 107.898C81.6693 107.727 81.3021 107.477 81 107.148C80.6979 106.82 80.4661 106.417 80.3047 105.938C80.1484 105.458 80.0703 104.909 80.0703 104.289V103.531C80.0703 102.828 80.151 102.219 80.3125 101.703C80.474 101.182 80.6979 100.753 80.9844 100.414C81.276 100.07 81.625 99.8151 82.0312 99.6484C82.4427 99.4766 82.8958 99.3906 83.3906 99.3906C83.9219 99.3906 84.3854 99.4792 84.7812 99.6562C85.1823 99.8281 85.513 100.086 85.7734 100.43C86.0339 100.773 86.2266 101.201 86.3516 101.711C86.4818 102.216 86.5469 102.802 86.5469 103.469V104.43H80.9688V102.969H84.5781V102.773C84.5677 102.409 84.5234 102.099 84.4453 101.844C84.3672 101.589 84.2422 101.396 84.0703 101.266C83.9036 101.13 83.6745 101.062 83.3828 101.062C83.1536 101.062 82.9557 101.109 82.7891 101.203C82.6224 101.292 82.487 101.432 82.3828 101.625C82.2839 101.812 82.2083 102.065 82.1562 102.383C82.1042 102.695 82.0781 103.078 82.0781 103.531V104.289C82.0781 104.69 82.1146 105.031 82.1875 105.312C82.2604 105.589 82.3672 105.815 82.5078 105.992C82.6484 106.164 82.8203 106.289 83.0234 106.367C83.2266 106.445 83.4635 106.484 83.7344 106.484C84.1406 106.484 84.4974 106.411 84.8047 106.266C85.112 106.115 85.3776 105.914 85.6016 105.664L86.4375 106.891C86.2865 107.094 86.0807 107.294 85.8203 107.492C85.5599 107.685 85.2448 107.844 84.875 107.969C84.5104 108.094 84.0859 108.156 83.6016 108.156ZM89.9141 101.305V108H87.9141V99.5469H89.8125L89.9141 101.305ZM91.9297 99.4844L91.9141 101.477C91.8099 101.456 91.6927 101.44 91.5625 101.43C91.4375 101.419 91.3203 101.414 91.2109 101.414C90.9661 101.414 90.7552 101.456 90.5781 101.539C90.401 101.622 90.2526 101.742 90.1328 101.898C90.013 102.055 89.9219 102.247 89.8594 102.477C89.7969 102.701 89.7578 102.956 89.7422 103.242L89.3359 103.172C89.3359 102.63 89.3776 102.13 89.4609 101.672C89.5495 101.214 89.6771 100.815 89.8438 100.477C90.0156 100.133 90.2266 99.8672 90.4766 99.6797C90.7266 99.487 91.013 99.3906 91.3359 99.3906C91.4349 99.3906 91.5417 99.401 91.6562 99.4219C91.776 99.4375 91.8672 99.4583 91.9297 99.4844ZM96.9453 105.742C96.9453 105.581 96.8932 105.438 96.7891 105.312C96.6901 105.188 96.5312 105.06 96.3125 104.93C96.0938 104.799 95.8047 104.659 95.4453 104.508C95.0547 104.352 94.7083 104.193 94.4062 104.031C94.1094 103.865 93.8568 103.682 93.6484 103.484C93.4401 103.281 93.2839 103.052 93.1797 102.797C93.0755 102.536 93.0234 102.237 93.0234 101.898C93.0234 101.549 93.0885 101.224 93.2188 100.922C93.349 100.62 93.5365 100.354 93.7812 100.125C94.0312 99.8958 94.3333 99.7161 94.6875 99.5859C95.0417 99.4557 95.4401 99.3906 95.8828 99.3906C96.5026 99.3906 97.0339 99.5026 97.4766 99.7266C97.9245 99.9453 98.2656 100.253 98.5 100.648C98.7396 101.044 98.8594 101.5 98.8594 102.016H96.8594C96.8594 101.818 96.8255 101.638 96.7578 101.477C96.6901 101.315 96.5833 101.188 96.4375 101.094C96.2917 100.995 96.1042 100.945 95.875 100.945C95.6823 100.945 95.5156 100.984 95.375 101.062C95.2396 101.141 95.1354 101.245 95.0625 101.375C94.9896 101.5 94.9531 101.643 94.9531 101.805C94.9531 101.93 94.9766 102.039 95.0234 102.133C95.0755 102.227 95.1562 102.318 95.2656 102.406C95.375 102.49 95.5208 102.578 95.7031 102.672C95.8906 102.76 96.1224 102.865 96.3984 102.984C96.9609 103.198 97.4271 103.424 97.7969 103.664C98.1667 103.898 98.4427 104.174 98.625 104.492C98.8073 104.805 98.8984 105.195 98.8984 105.664C98.8984 106.034 98.8281 106.372 98.6875 106.68C98.5469 106.987 98.3438 107.253 98.0781 107.477C97.8177 107.695 97.5026 107.865 97.1328 107.984C96.763 108.099 96.349 108.156 95.8906 108.156C95.2188 108.156 94.651 108.023 94.1875 107.758C93.7292 107.492 93.3802 107.148 93.1406 106.727C92.9062 106.305 92.7891 105.865 92.7891 105.406H94.7109C94.7214 105.708 94.7812 105.948 94.8906 106.125C95.0052 106.297 95.1536 106.417 95.3359 106.484C95.5182 106.552 95.7135 106.586 95.9219 106.586C96.151 106.586 96.3411 106.555 96.4922 106.492C96.6432 106.424 96.7552 106.328 96.8281 106.203C96.9062 106.073 96.9453 105.919 96.9453 105.742ZM104.219 106.172V102.109C104.219 101.833 104.182 101.615 104.109 101.453C104.042 101.292 103.94 101.174 103.805 101.102C103.669 101.023 103.503 100.984 103.305 100.984C103.091 100.984 102.911 101.029 102.766 101.117C102.62 101.201 102.51 101.323 102.438 101.484C102.37 101.641 102.336 101.826 102.336 102.039H100.328C100.328 101.685 100.398 101.349 100.539 101.031C100.68 100.714 100.883 100.432 101.148 100.188C101.414 99.9375 101.734 99.7422 102.109 99.6016C102.484 99.4609 102.904 99.3906 103.367 99.3906C103.919 99.3906 104.409 99.4844 104.836 99.6719C105.268 99.8542 105.607 100.148 105.852 100.555C106.102 100.956 106.227 101.482 106.227 102.133V105.992C106.227 106.424 106.25 106.792 106.297 107.094C106.349 107.396 106.424 107.654 106.523 107.867V108H104.492C104.404 107.781 104.336 107.505 104.289 107.172C104.242 106.833 104.219 106.5 104.219 106.172ZM104.477 102.844L104.484 104.094H103.641C103.406 104.094 103.198 104.128 103.016 104.195C102.839 104.263 102.688 104.359 102.562 104.484C102.438 104.609 102.344 104.758 102.281 104.93C102.219 105.102 102.188 105.289 102.188 105.492C102.188 105.727 102.221 105.922 102.289 106.078C102.357 106.229 102.456 106.344 102.586 106.422C102.716 106.495 102.875 106.531 103.062 106.531C103.328 106.531 103.557 106.474 103.75 106.359C103.948 106.245 104.096 106.109 104.195 105.953C104.299 105.792 104.339 105.641 104.312 105.5L104.766 106.312C104.714 106.505 104.633 106.708 104.523 106.922C104.414 107.135 104.273 107.336 104.102 107.523C103.935 107.711 103.729 107.865 103.484 107.984C103.245 108.099 102.961 108.156 102.633 108.156C102.169 108.156 101.75 108.055 101.375 107.852C101.005 107.648 100.714 107.362 100.5 106.992C100.286 106.617 100.18 106.169 100.18 105.648C100.18 105.221 100.25 104.836 100.391 104.492C100.531 104.148 100.737 103.854 101.008 103.609C101.284 103.365 101.633 103.177 102.055 103.047C102.477 102.911 102.971 102.844 103.539 102.844H104.477ZM109.992 101.281V108H107.984V99.5469H109.859L109.992 101.281ZM109.688 103.477L109.07 103.484C109.065 102.896 109.12 102.352 109.234 101.852C109.349 101.352 109.523 100.919 109.758 100.555C109.992 100.185 110.289 99.8984 110.648 99.6953C111.008 99.4922 111.424 99.3906 111.898 99.3906C112.206 99.3906 112.492 99.4479 112.758 99.5625C113.023 99.6719 113.253 99.8464 113.445 100.086C113.643 100.32 113.794 100.628 113.898 101.008C114.008 101.383 114.062 101.833 114.062 102.359V108H112.062V102.586C112.062 102.195 112.021 101.893 111.938 101.68C111.859 101.461 111.742 101.307 111.586 101.219C111.435 101.125 111.247 101.078 111.023 101.078C110.789 101.078 110.583 101.141 110.406 101.266C110.234 101.385 110.096 101.557 109.992 101.781C109.888 102 109.81 102.255 109.758 102.547C109.706 102.833 109.682 103.143 109.688 103.477ZM113.906 103.125L113.086 103.273C113.076 102.737 113.125 102.234 113.234 101.766C113.349 101.292 113.521 100.878 113.75 100.523C113.979 100.169 114.268 99.8932 114.617 99.6953C114.966 99.4922 115.372 99.3906 115.836 99.3906C116.185 99.3906 116.5 99.4479 116.781 99.5625C117.068 99.6771 117.312 99.862 117.516 100.117C117.719 100.367 117.872 100.695 117.977 101.102C118.086 101.503 118.141 101.992 118.141 102.57V108H116.133V102.57C116.133 102.169 116.091 101.862 116.008 101.648C115.924 101.43 115.807 101.281 115.656 101.203C115.505 101.12 115.32 101.078 115.102 101.078C114.904 101.078 114.729 101.133 114.578 101.242C114.432 101.346 114.307 101.492 114.203 101.68C114.104 101.867 114.029 102.083 113.977 102.328C113.93 102.573 113.906 102.839 113.906 103.125ZM123.719 106.172V102.109C123.719 101.833 123.682 101.615 123.609 101.453C123.542 101.292 123.44 101.174 123.305 101.102C123.169 101.023 123.003 100.984 122.805 100.984C122.591 100.984 122.411 101.029 122.266 101.117C122.12 101.201 122.01 101.323 121.938 101.484C121.87 101.641 121.836 101.826 121.836 102.039H119.828C119.828 101.685 119.898 101.349 120.039 101.031C120.18 100.714 120.383 100.432 120.648 100.188C120.914 99.9375 121.234 99.7422 121.609 99.6016C121.984 99.4609 122.404 99.3906 122.867 99.3906C123.419 99.3906 123.909 99.4844 124.336 99.6719C124.768 99.8542 125.107 100.148 125.352 100.555C125.602 100.956 125.727 101.482 125.727 102.133V105.992C125.727 106.424 125.75 106.792 125.797 107.094C125.849 107.396 125.924 107.654 126.023 107.867V108H123.992C123.904 107.781 123.836 107.505 123.789 107.172C123.742 106.833 123.719 106.5 123.719 106.172ZM123.977 102.844L123.984 104.094H123.141C122.906 104.094 122.698 104.128 122.516 104.195C122.339 104.263 122.188 104.359 122.062 104.484C121.938 104.609 121.844 104.758 121.781 104.93C121.719 105.102 121.688 105.289 121.688 105.492C121.688 105.727 121.721 105.922 121.789 106.078C121.857 106.229 121.956 106.344 122.086 106.422C122.216 106.495 122.375 106.531 122.562 106.531C122.828 106.531 123.057 106.474 123.25 106.359C123.448 106.245 123.596 106.109 123.695 105.953C123.799 105.792 123.839 105.641 123.812 105.5L124.266 106.312C124.214 106.505 124.133 106.708 124.023 106.922C123.914 107.135 123.773 107.336 123.602 107.523C123.435 107.711 123.229 107.865 122.984 107.984C122.745 108.099 122.461 108.156 122.133 108.156C121.669 108.156 121.25 108.055 120.875 107.852C120.505 107.648 120.214 107.362 120 106.992C119.786 106.617 119.68 106.169 119.68 105.648C119.68 105.221 119.75 104.836 119.891 104.492C120.031 104.148 120.237 103.854 120.508 103.609C120.784 103.365 121.133 103.177 121.555 103.047C121.977 102.911 122.471 102.844 123.039 102.844H123.977Z" fill="white"/>
</svg>
